<svg xmlns="http://www.w3.org/2000/svg" viewBox="0 0 400 300" fill="none">
  <defs>
    <linearGradient id="educationGradient" x1="0%" y1="0%" x2="100%" y2="100%">
      <stop offset="0%" stop-color="rgba(99, 102, 241, 0.1)"/>
      <stop offset="100%" stop-color="rgba(16, 185, 129, 0.1)"/>
    </linearGradient>
  </defs>
  
  <!-- Background -->
  <rect width="400" height="300" fill="url(#educationGradient)"/>
  
  <!-- Graduation cap -->
  <path d="M50 80 L150 30 L250 80 L150 130 Z" fill="rgba(99, 102, 241, 0.2)" stroke="rgba(99, 102, 241, 0.4)"/>
  <rect x="140" y="80" width="20" height="40" fill="rgba(99, 102, 241, 0.2)" stroke="rgba(99, 102, 241, 0.4)"/>
  <path d="M130 120 L170 120" stroke="rgba(99, 102, 241, 0.4)" stroke-width="2"/>
  
  <!-- Books -->
  <rect x="60" y="180" width="40" height="50" rx="4" fill="rgba(16, 185, 129, 0.2)" stroke="rgba(16, 185, 129, 0.4)"/>
  <rect x="65" y="185" width="30" height="3" rx="1" fill="rgba(16, 185, 129, 0.4)"/>
  <rect x="65" y="195" width="30" height="3" rx="1" fill="rgba(16, 185, 129, 0.4)"/>
  <rect x="65" y="205" width="20" height="3" rx="1" fill="rgba(16, 185, 129, 0.4)"/>
  
  <rect x="110" y="175" width="40" height="50" rx="4" fill="rgba(99, 102, 241, 0.2)" stroke="rgba(99, 102, 241, 0.4)"/>
  <rect x="115" y="180" width="30" height="3" rx="1" fill="rgba(99, 102, 241, 0.4)"/>
  <rect x="115" y="190" width="30" height="3" rx="1" fill="rgba(99, 102, 241, 0.4)"/>
  <rect x="115" y="200" width="25" height="3" rx="1" fill="rgba(99, 102, 241, 0.4)"/>
  
  <rect x="160" y="185" width="40" height="50" rx="4" fill="rgba(16, 185, 129, 0.2)" stroke="rgba(16, 185, 129, 0.4)"/>
  <rect x="165" y="190" width="30" height="3" rx="1" fill="rgba(16, 185, 129, 0.4)"/>
  <rect x="165" y="200" width="30" height="3" rx="1" fill="rgba(16, 185, 129, 0.4)"/>
  <rect x="165" y="210" width="20" height="3" rx="1" fill="rgba(16, 185, 129, 0.4)"/>
  
  <!-- Academic timeline -->
  <path d="M250 50 L250 250" stroke="rgba(99, 102, 241, 0.3)" stroke-width="2" stroke-dasharray="4"/>
  
  <!-- Timeline nodes -->
  <circle cx="250" cy="80" r="8" fill="rgba(16, 185, 129, 0.3)" stroke="rgba(16, 185, 129, 0.5)"/>
  <circle cx="250" cy="130" r="8" fill="rgba(99, 102, 241, 0.3)" stroke="rgba(99, 102, 241, 0.5)"/>
  <circle cx="250" cy="180" r="8" fill="rgba(16, 185, 129, 0.3)" stroke="rgba(16, 185, 129, 0.5)"/>
  <circle cx="250" cy="230" r="8" fill="rgba(99, 102, 241, 0.3)" stroke="rgba(99, 102, 241, 0.5)"/>
  
  <!-- Degree certificates -->
  <rect x="270" y="70" width="80" height="60" rx="8" fill="rgba(255, 255, 255, 0.1)" stroke="rgba(16, 185, 129, 0.3)"/>
  <rect x="280" y="80" width="60" height="8" rx="4" fill="rgba(16, 185, 129, 0.2)"/>
  <rect x="280" y="95" width="40" height="8" rx="4" fill="rgba(16, 185, 129, 0.2)"/>
  <rect x="280" y="110" width="50" height="8" rx="4" fill="rgba(16, 185, 129, 0.2)"/>
  
  <rect x="270" y="150" width="80" height="60" rx="8" fill="rgba(255, 255, 255, 0.1)" stroke="rgba(99, 102, 241, 0.3)"/>
  <rect x="280" y="160" width="60" height="8" rx="4" fill="rgba(99, 102, 241, 0.2)"/>
  <rect x="280" y="175" width="40" height="8" rx="4" fill="rgba(99, 102, 241, 0.2)"/>
  <rect x="280" y="190" width="50" height="8" rx="4" fill="rgba(99, 102, 241, 0.2)"/>
  
  <!-- Academic achievements -->
  <circle cx="320" cy="250" r="12" fill="rgba(245, 158, 11, 0.2)" stroke="rgba(245, 158, 11, 0.4)"/>
  <text x="320" y="255" text-anchor="middle" fill="rgba(245, 158, 11, 0.8)" font-size="14" font-weight="bold">★</text>
  
  <!-- Connection lines -->
  <path d="M258 80 L270 100" stroke="rgba(16, 185, 129, 0.4)" stroke-width="2" stroke-dasharray="4"/>
  <path d="M258 130 L270 180" stroke="rgba(99, 102, 241, 0.4)" stroke-width="2" stroke-dasharray="4"/>
  <path d="M258 180 L270 210" stroke="rgba(16, 185, 129, 0.4)" stroke-width="2" stroke-dasharray="4"/>
</svg>
