<svg xmlns="http://www.w3.org/2000/svg" viewBox="0 0 1920 1080" fill="none">
  <defs>
    <linearGradient id="mainGradient" x1="0%" y1="0%" x2="100%" y2="100%">
      <stop offset="0%" stop-color="rgba(7, 11, 23, 0.95)"/>
      <stop offset="50%" stop-color="rgba(13, 20, 38, 0.9)"/>
      <stop offset="100%" stop-color="rgba(7, 11, 23, 0.95)"/>
    </linearGradient>
    
    <radialGradient id="glow1" cx="50%" cy="50%" r="50%">
      <stop offset="0%" stop-color="rgba(59, 130, 246, 0.1)"/>
      <stop offset="100%" stop-color="rgba(59, 130, 246, 0)"/>
    </radialGradient>
    
    <radialGradient id="glow2" cx="50%" cy="50%" r="50%">
      <stop offset="0%" stop-color="rgba(16, 185, 129, 0.1)"/>
      <stop offset="100%" stop-color="rgba(16, 185, 129, 0)"/>
    </radialGradient>
    
    <radialGradient id="glow3" cx="50%" cy="50%" r="50%">
      <stop offset="0%" stop-color="rgba(99, 102, 241, 0.1)"/>
      <stop offset="100%" stop-color="rgba(99, 102, 241, 0)"/>
    </radialGradient>
  </defs>
  
  <!-- Background -->
  <rect width="1920" height="1080" fill="url(#mainGradient)"/>
  
  <!-- Floating geometric shapes -->
  <circle cx="200" cy="200" r="80" fill="url(#glow1)" opacity="0.6"/>
  <circle cx="1720" cy="300" r="120" fill="url(#glow2)" opacity="0.4"/>
  <circle cx="400" cy="800" r="100" fill="url(#glow3)" opacity="0.5"/>
  <circle cx="1600" cy="700" r="90" fill="url(#glow1)" opacity="0.3"/>
  
  <!-- Abstract lines and curves -->
  <path d="M0 400 Q 400 200 800 400 T 1600 400 L 1920 400" 
        stroke="rgba(59, 130, 246, 0.2)" stroke-width="2" fill="none" opacity="0.6"/>
  <path d="M0 700 Q 500 500 1000 700 T 1920 700" 
        stroke="rgba(16, 185, 129, 0.2)" stroke-width="2" fill="none" opacity="0.6"/>
  <path d="M0 600 Q 600 400 1200 600 T 1920 600" 
        stroke="rgba(99, 102, 241, 0.2)" stroke-width="2" fill="none" opacity="0.6"/>
  
  <!-- Grid pattern -->
  <g opacity="0.1">
    <line x1="0" y1="0" x2="1920" y2="0" stroke="rgba(255,255,255,0.1)" stroke-width="1"/>
    <line x1="0" y1="200" x2="1920" y2="200" stroke="rgba(255,255,255,0.1)" stroke-width="1"/>
    <line x1="0" y1="400" x2="1920" y2="400" stroke="rgba(255,255,255,0.1)" stroke-width="1"/>
    <line x1="0" y1="600" x2="1920" y2="600" stroke="rgba(255,255,255,0.1)" stroke-width="1"/>
    <line x1="0" y1="800" x2="1920" y2="800" stroke="rgba(255,255,255,0.1)" stroke-width="1"/>
    <line x1="0" y1="1000" x2="1920" y2="1000" stroke="rgba(255,255,255,0.1)" stroke-width="1"/>
    <line x1="0" y1="1080" x2="1920" y2="1080" stroke="rgba(255,255,255,0.1)" stroke-width="1"/>
    
    <line x1="0" y1="0" x2="0" y2="1080" stroke="rgba(255,255,255,0.1)" stroke-width="1"/>
    <line x1="200" y1="0" x2="200" y2="1080" stroke="rgba(255,255,255,0.1)" stroke-width="1"/>
    <line x1="400" y1="0" x2="400" y2="1080" stroke="rgba(255,255,255,0.1)" stroke-width="1"/>
    <line x1="600" y1="0" x2="600" y2="1080" stroke="rgba(255,255,255,0.1)" stroke-width="1"/>
    <line x1="800" y1="0" x2="800" y2="1080" stroke="rgba(255,255,255,0.1)" stroke-width="1"/>
    <line x1="1000" y1="0" x2="1000" y2="1080" stroke="rgba(255,255,255,0.1)" stroke-width="1"/>
    <line x1="1200" y1="0" x2="1200" y2="1080" stroke="rgba(255,255,255,0.1)" stroke-width="1"/>
    <line x1="1400" y1="0" x2="1400" y2="1080" stroke="rgba(255,255,255,0.1)" stroke-width="1"/>
    <line x1="1600" y1="0" x2="1600" y2="1080" stroke="rgba(255,255,255,0.1)" stroke-width="1"/>
    <line x1="1800" y1="0" x2="1800" y2="1080" stroke="rgba(255,255,255,0.1)" stroke-width="1"/>
    <line x1="1920" y1="0" x2="1920" y2="1080" stroke="rgba(255,255,255,0.1)" stroke-width="1"/>
  </g>
  
  <!-- Floating particles -->
  <circle cx="150" cy="150" r="2" fill="rgba(59, 130, 246, 0.6)"/>
  <circle cx="300" cy="250" r="1.5" fill="rgba(16, 185, 129, 0.6)"/>
  <circle cx="450" cy="180" r="2.5" fill="rgba(99, 102, 241, 0.6)"/>
  <circle cx="600" cy="320" r="1" fill="rgba(59, 130, 246, 0.6)"/>
  <circle cx="750" cy="200" r="2" fill="rgba(16, 185, 129, 0.6)"/>
  <circle cx="900" cy="280" r="1.5" fill="rgba(99, 102, 241, 0.6)"/>
  <circle cx="1050" cy="150" r="2.5" fill="rgba(59, 130, 246, 0.6)"/>
  <circle cx="1200" cy="220" r="1" fill="rgba(16, 185, 129, 0.6)"/>
  <circle cx="1350" cy="300" r="2" fill="rgba(99, 102, 241, 0.6)"/>
  <circle cx="1500" cy="180" r="1.5" fill="rgba(59, 130, 246, 0.6)"/>
  <circle cx="1650" cy="250" r="2.5" fill="rgba(16, 185, 129, 0.6)"/>
  <circle cx="1800" cy="200" r="1" fill="rgba(99, 102, 241, 0.6)"/>
  
  <!-- Bottom section particles -->
  <circle cx="200" cy="900" r="2" fill="rgba(59, 130, 246, 0.6)"/>
  <circle cx="400" cy="850" r="1.5" fill="rgba(16, 185, 129, 0.6)"/>
  <circle cx="600" cy="920" r="2.5" fill="rgba(99, 102, 241, 0.6)"/>
  <circle cx="800" cy="880" r="1" fill="rgba(59, 130, 246, 0.6)"/>
  <circle cx="1000" cy="950" r="2" fill="rgba(16, 185, 129, 0.6)"/>
  <circle cx="1200" cy="870" r="1.5" fill="rgba(99, 102, 241, 0.6)"/>
  <circle cx="1400" cy="930" r="2.5" fill="rgba(59, 130, 246, 0.6)"/>
  <circle cx="1600" cy="890" r="1" fill="rgba(16, 185, 129, 0.6)"/>
  <circle cx="1800" cy="910" r="2" fill="rgba(99, 102, 241, 0.6)"/>
  
  <!-- Subtle wave patterns -->
  <path d="M0 100 Q 480 50 960 100 T 1920 100" 
        stroke="rgba(59, 130, 246, 0.15)" stroke-width="1" fill="none" opacity="0.4"/>
  <path d="M0 950 Q 480 900 960 950 T 1920 950" 
        stroke="rgba(16, 185, 129, 0.15)" stroke-width="1" fill="none" opacity="0.4"/>
</svg>
