<svg xmlns="http://www.w3.org/2000/svg" viewBox="0 0 400 300" fill="none">
  <defs>
    <linearGradient id="recipeGradient" x1="0%" y1="0%" x2="100%" y2="100%">
      <stop offset="0%" stop-color="rgba(16, 185, 129, 0.1)"/>
      <stop offset="100%" stop-color="rgba(59, 130, 246, 0.1)"/>
    </linearGradient>
  </defs>
  
  <!-- Background -->
  <rect width="400" height="300" fill="url(#recipeGradient)"/>
  
  <!-- Recipe cards -->
  <rect x="50" y="50" width="80" height="100" rx="8" fill="rgba(255, 255, 255, 0.1)" stroke="rgba(16, 185, 129, 0.3)"/>
  <rect x="150" y="80" width="80" height="100" rx="8" fill="rgba(255, 255, 255, 0.1)" stroke="rgba(59, 130, 246, 0.3)"/>
  <rect x="250" y="60" width="80" height="100" rx="8" fill="rgba(255, 255, 255, 0.1)" stroke="rgba(16, 185, 129, 0.3)"/>
  
  <!-- Food icons -->
  <circle cx="90" cy="80" r="8" fill="rgba(16, 185, 129, 0.4)"/>
  <circle cx="190" cy="110" r="8" fill="rgba(59, 130, 246, 0.4)"/>
  <circle cx="290" cy="90" r="8" fill="rgba(16, 185, 129, 0.4)"/>
  
  <!-- Connection lines representing recommendations -->
  <path d="M130 100 L150 120" stroke="rgba(16, 185, 129, 0.4)" stroke-width="2" stroke-dasharray="4"/>
  <path d="M230 120 L250 140" stroke="rgba(59, 130, 246, 0.4)" stroke-width="2" stroke-dasharray="4"/>
  
  <!-- Search/filter icons -->
  <circle cx="200" cy="200" r="15" fill="rgba(59, 130, 246, 0.2)" stroke="rgba(59, 130, 246, 0.4)"/>
  <path d="M190 190 L210 210 M210 190 L190 210" stroke="rgba(59, 130, 246, 0.6)" stroke-width="2"/>
  
  <!-- Ingredient tags -->
  <rect x="80" y="220" width="40" height="20" rx="10" fill="rgba(16, 185, 129, 0.2)" stroke="rgba(16, 185, 129, 0.4)"/>
  <rect x="140" y="220" width="40" height="20" rx="10" fill="rgba(59, 130, 246, 0.2)" stroke="rgba(59, 130, 246, 0.4)"/>
  <rect x="200" y="220" width="40" height="20" rx="10" fill="rgba(16, 185, 129, 0.2)" stroke="rgba(16, 185, 129, 0.4)"/>
  <rect x="260" y="220" width="40" height="20" rx="10" fill="rgba(59, 130, 246, 0.2)" stroke="rgba(59, 130, 246, 0.4)"/>
</svg>
