<svg xmlns="http://www.w3.org/2000/svg" viewBox="0 0 128 128">
  <path fill="#03599C" d="M117.5 33.5l.3-.2c-.6-1.1-1.5-2.1-2.4-2.6L67.1 2.9c-.8-.5-1.9-.7-3.1-.7-1.2 0-2.3.3-3.1.7l-48 27.9c-1.7 1-2.9 3-2.9 5.2v55.7c0 1.1.2 2.3.9 3.4l-.2.1c.5.8 1.2 1.5 1.9 2.1 2.7 2.4 6.4 3.7 10.1 3.7 1.3 0 2.6-.2 3.8-.5l-.1-.1c.6-.3 1.1-.7 1.6-1.1l48-27.9c.8-.5 1.9-.7 3.1-.7 1.2 0 2.3.3 3.1.7l48 27.9c.5.3 1 .8 1.6 1.1l-.1.1c1.2.3 2.5.5 3.8.5 3.7 0 7.4-1.3 10.1-3.7.7-.6 1.4-1.3 1.9-2.1l-.2-.1c.7-1.1.9-2.3.9-3.4V38.7c.1-2.2-1.1-4.2-2.8-5.2zM82 99.6l-7.5 4.4-7.5-4.4V85.8l7.5 4.4 7.5-4.4v13.8zm-15-8.8l-7.5 4.4-7.5-4.4V77l7.5 4.4 7.5-4.4v13.8zm-15-8.8l-7.5 4.4-7.5-4.4V68.2l7.5 4.4 7.5-4.4v13.8zm-15-8.8l-7.5 4.4-7.5-4.4V59.4l7.5 4.4 7.5-4.4v13.8zm-15-8.8l-7.5 4.4-7.5-4.4V50.6l7.5 4.4 7.5-4.4v13.8zm-15-8.8l-7.5 4.4-7.5-4.4V41.8l7.5 4.4 7.5-4.4v13.8zm-15-8.8l-7.5 4.4-7.5-4.4V33l7.5 4.4 7.5-4.4v13.8zm-15-8.8l-7.5 4.4-7.5-4.4V24.2l7.5 4.4 7.5-4.4v13.8zm-15-8.8l-7.5 4.4-7.5-4.4V15.4l7.5 4.4 7.5-4.4v13.8zm-15-8.8l-7.5 4.4-7.5-4.4V6.6l7.5 4.4 7.5-4.4v13.8z"/>
  <path fill="#fff" d="M64 13.4L28.7 31.1 64 48.8l35.3-17.7L64 13.4z"/>
</svg>
