<svg xmlns="http://www.w3.org/2000/svg" viewBox="0 0 128 128">
  <path fill="#0074BD" d="M47.617 98.12S24.744 90.499 41.97 73.473c.266-4.209-1.077-6.991-3.84-9.23-2.754-2.237-7.02-3.038-10.473-2.028 3.343-6.367 11.98-5.79 16.248-2.643 4.422 3.25 6.013 9.023 2.92 15.36-1.755 3.557-3.92 5.055-3.92 5.055s2.562-1.958 5.523-6.752c2.13-3.48 2.67-7.61.98-11.563-1.69-3.96-5.47-6.72-9.18-7.612-3.71-.89-7.69-.03-10.98 2.34-3.29 2.37-5.6 5.88-6.35 9.74-.75 3.86.06 7.92 2.23 11.34 2.17 3.42 5.67 6.12 9.67 7.47 4 1.35 8.4 1.23 12.4-.34 4-1.57 7.6-4.47 10.2-8.24 2.6-3.77 4.2-8.4 4.2-8.4s-1.6 4.6-4.6 8.34c-3 3.74-7.4 6.64-11.4 8.21-4 1.57-8.4 1.69-12.4.34-4-1.35-7.5-4.05-9.67-7.47-2.17-3.42-2.98-7.48-2.23-11.34.75-3.86 3.06-7.37 6.35-9.74 3.29-2.37 7.27-3.23 10.98-2.34 3.71.89 7.49 3.65 9.18 7.612 1.69 3.953 1.15 8.083-.98 11.563-2.961 4.794-5.523 6.752-5.523 6.752z"/>
  <path fill="#EA2D2D" d="M82.696 84.6c-1.027 1.988-2.214 3.896-3.555 5.717-1.34 1.82-2.96 3.526-4.76 5.11-1.8 1.584-3.82 3.01-6.06 4.28-2.24 1.27-4.74 2.36-7.5 3.26-2.76.9-5.82 1.35-9.18 1.35-3.36 0-6.42-.45-9.18-1.35-2.76-.9-5.26-1.99-7.5-3.26-2.24-1.27-4.26-2.696-6.06-4.28-1.8-1.584-3.42-3.29-4.76-5.11-1.34-1.82-2.53-3.73-3.56-5.72-1.03-1.99-1.86-4.05-2.5-6.18-.64-2.13-.96-4.33-.96-6.6 0-2.27.32-4.47.96-6.6.64-2.13 1.47-4.19 2.5-6.18 1.03-1.99 2.22-3.9 3.56-5.72 1.34-1.82 2.96-3.526 4.76-5.11 1.8-1.584 3.82-3.01 6.06-4.28 2.24-1.27 4.74-2.36 7.5-3.26 2.76-.9 5.82-1.35 9.18-1.35 3.36 0 6.42.45 9.18 1.35 2.76.9 5.26 1.99 7.5 3.26 2.24 1.27 4.26 2.696 6.06 4.28 1.8 1.584 3.42 3.29 4.76 5.11 1.34 1.82 2.53 3.73 3.56 5.72 1.03 1.99 1.86 4.05 2.5 6.18.64 2.13.96 4.33.96 6.6 0 2.27-.32 4.47-.96 6.6-.64 2.13-1.47 4.19-2.5 6.18zm-15.696.6c.8-1.6 1.44-3.2 1.92-4.8.48-1.6.72-3.2.72-4.8 0-1.6-.24-3.2-.72-4.8-.48-1.6-1.12-3.2-1.92-4.8-.8-1.6-1.76-3.04-2.88-4.32-1.12-1.28-2.48-2.24-4.08-2.88-1.6-.64-3.44-.96-5.52-.96-2.08 0-3.92.32-5.52.96-1.6.64-2.96 1.6-4.08 2.88-1.12 1.28-2.08 2.72-2.88 4.32-.8 1.6-1.44 3.2-1.92 4.8-.48 1.6-.72 3.2-.72 4.8 0 1.6.24 3.2.72 4.8.48 1.6 1.12 3.2 1.92 4.8.8 1.6 1.76 3.04 2.88 4.32 1.12 1.28 2.48 2.24 4.08 2.88 1.6.64 3.44.96 5.52.96 2.08 0 3.92-.32 5.52-.96 1.6-.64 2.96-1.6 4.08-2.88 1.12-1.28 2.08-2.72 2.88-4.32z"/>
</svg>
