<svg xmlns="http://www.w3.org/2000/svg" viewBox="0 0 24 24" fill="currentColor">
  <path d="M14.23 12.004a2.236 2.236 0 0 1-2.235 2.236 2.236 2.236 0 0 1-2.236-2.236 2.236 2.236 0 0 1 2.235-2.236 2.236 2.236 0 0 1 2.236 2.236zm2.648-10.69c-2.494.378-4.524 2.504-4.52 5.002.004 2.494 2.03 4.62 4.524 4.996 2.494-.378 4.524-2.504 4.52-5.002-.004-2.494-2.03-4.62-4.524-4.996zM12 24c-2.494 0-4.524-2.504-4.524-5.002.004-2.494 2.03-4.62 4.524-4.996 2.494.378 4.524 2.504 4.524 4.996C16.524 21.496 14.494 24 12 24zm0-9.996c-2.494 0-4.524-2.504-4.524-5.002.004-2.494 2.03-4.62 4.524-4.996 2.494.378 4.524 2.504 4.524 4.996C16.524 11.496 14.494 14 12 14.004z"/>
</svg>
